<?xml version="1.0" encoding="UTF-8" standalone="no"?>
<svg
   xmlns="http://www.w3.org/2000/svg"
   viewBox="0 0 337.11111 73.179344"
   version="1.2"
   id="svg119"
   width="337.11111"
   fill="#5521b5"
   height="73.179344">
  <defs
     id="defs65" />
  <circle
     cx="5"
     cy="13.803773"
     r="5"
     fill="inherit"
     id="circle10" />
  <line
     x1="8.1695232"
     y1="15.793027"
     x2="49.194195"
     y2="37.648613"
     stroke="#5521b5"
     stroke-width="2"
     id="line12" />
  <line
     x1="8.1772537"
     y1="14.840383"
     x2="42.986801"
     y2="7.3589697"
     stroke="#5521b5"
     stroke-width="2"
     id="line14" />
  <circle
     cx="49.993618"
     cy="38.179344"
     r="5"
     fill="inherit"
     id="circle16" />
  <circle
     cx="44.270737"
     cy="7.3179021"
     r="5"
     fill="inherit"
     id="circle18" />
  <line
     x1="49.140335"
     y1="38.252499"
     x2="44.759392"
     y2="8.5209541"
     stroke="#5521b5"
     stroke-width="2"
     id="line20" />
  <line
     x1="49.993618"
     y1="38.179344"
     x2="115.99362"
     y2="48.179344"
     stroke="#5521b5"
     stroke-width="2"
     id="line22" />
  <line
     x1="44.759392"
     y1="8.5209541"
     x2="110.99362"
     y2="28.179342"
     stroke="#5521b5"
     stroke-width="2"
     id="line24" />
  <circle
     cx="115.99362"
     cy="48.179344"
     r="5"
     fill="inherit"
     id="circle26" />
  <circle
     cx="105.99362"
     cy="68.179344"
     r="5"
     fill="inherit"
     id="circle28" />
  <circle
     cx="130.99362"
     cy="53.179344"
     r="5"
     fill="inherit"
     id="circle30" />
  <line
     x1="115.99362"
     y1="48.179344"
     x2="110.99362"
     y2="28.179342"
     stroke="#5521b5"
     stroke-width="2"
     id="line32" />
  <line
     x1="115.99362"
     y1="48.179344"
     x2="105.99362"
     y2="68.179344"
     stroke="#5521b5"
     stroke-width="2"
     id="line34" />
  <line
     x1="115.99362"
     y1="48.179344"
     x2="130.99362"
     y2="53.179344"
     stroke="#5521b5"
     stroke-width="2"
     id="line36" />
  <line
     x1="130.99362"
     y1="53.179344"
     x2="178.41608"
     y2="45.133148"
     stroke="#5521b5"
     stroke-width="2"
     id="line38" />
  <line
     x1="105.99362"
     y1="68.179344"
     x2="130.99362"
     y2="53.179344"
     stroke="#5521b5"
     stroke-width="2"
     id="line40" />
  <circle
     cx="110.99362"
     cy="28.179342"
     r="5"
     fill="inherit"
     id="circle42" />
  <line
     x1="111.26566"
     y1="27.711241"
     x2="166.99689"
     y2="11.277343"
     stroke="#5521b5"
     stroke-width="2"
     id="line46" />
  <line
     x1="111.01158"
     y1="28.234274"
     x2="177.59116"
     y2="43.273949"
     stroke="#5521b5"
     stroke-width="2"
     id="line48" />
  <circle
     cx="225.00912"
     cy="28.908604"
     r="5"
     fill="inherit"
     id="circle50" />
  <circle
     cx="166.90428"
     cy="9.7153502"
     r="5"
     fill="inherit"
     id="circle52" />
  <line
     x1="167.75784"
     y1="9.5231771"
     x2="224.18396"
     y2="30.047733"
     stroke="#5521b5"
     stroke-width="2"
     id="line54" />
  <line
     x1="167.40494"
     y1="9.180892"
     x2="44.623379"
     y2="7.9615188"
     stroke="#5521b5"
     stroke-width="2"
     id="line56" />
  <circle
     cx="178.96536"
     cy="43.62146"
     r="5"
     fill="inherit"
     id="circle58" />
  <line
     x1="179.59825"
     y1="43.269077"
     x2="224.16299"
     y2="30.107534"
     stroke="#5521b5"
     stroke-width="2"
     id="line60" />
  <circle
     cx="238.8504"
     cy="43.303509"
     r="5"
     fill="inherit"
     id="circle50-9" />
  <circle
     cx="271.55222"
     cy="38.156002"
     r="5"
     fill="inherit"
     id="circle50-7" />
  <circle
     cx="255.8069"
     cy="5"
     r="5"
     fill="inherit"
     id="circle50-0" />
  <circle
     cx="200.54689"
     cy="60.260006"
     r="5"
     fill="inherit"
     id="circle50-1" />
  <circle
     cx="310.15851"
     cy="25.741425"
     r="5"
     fill="inherit"
     id="circle50-04" />
  <circle
     cx="332.11111"
     cy="55.869484"
     r="5"
     fill="inherit"
     id="circle50-08" />
  <circle
     cx="290.77966"
     cy="60.714195"
     r="5"
     fill="inherit"
     id="circle50-09" />
  <path
     style="fill:none;stroke:#5521b5;stroke-width:2;stroke-linecap:butt;stroke-linejoin:miter;stroke-opacity:1"
     d="M 224.18396,30.047734 255.80689,5.1513972 271.7036,38.610194"
     id="path218" />
  <path
     style="fill:none;stroke:#5521b5;stroke-width:2;stroke-linecap:butt;stroke-linejoin:miter;stroke-opacity:1"
     d="M 239.00179,43.757701 271.7036,38.610194"
     id="path220" />
  <path
     style="fill:none;stroke:#5521b5;stroke-width:2;stroke-linecap:butt;stroke-linejoin:miter;stroke-opacity:1"
     d="m 225.20317,27.837058 13.79862,15.920643 16.8051,-38.6063038 v 0"
     id="path222" />
  <path
     style="fill:none;stroke:#5521b5;stroke-width:2;stroke-linecap:butt;stroke-linejoin:miter;stroke-opacity:1"
     d="m 224.18396,30.047734 47.51964,8.56246 38.45491,-12.717371"
     id="path224" />
  <path
     style="fill:none;stroke:#5521b5;stroke-width:2;stroke-linecap:butt;stroke-linejoin:miter;stroke-opacity:1"
     d="M 332.56531,56.020879 310.15851,25.892823 290.62826,60.865592"
     id="path226" />
  <path
     style="fill:none;stroke:#5521b5;stroke-width:2;stroke-linecap:butt;stroke-linejoin:miter;stroke-opacity:1"
     d="m 239.00179,43.757701 51.62647,17.107891"
     id="path228" />
  <path
     style="fill:none;stroke:#5521b5;stroke-width:2;stroke-linecap:butt;stroke-linejoin:miter;stroke-opacity:1"
     d="m 200.0927,60.865592 h 90.53556"
     id="path230" />
  <path
     style="fill:none;stroke:#5521b5;stroke-width:2;stroke-linecap:butt;stroke-linejoin:miter;stroke-opacity:1"
     d="M 225.20317,27.837058 200.0927,60.865592"
     id="path232" />
  <path
     style="fill:none;stroke:#5521b5;stroke-width:2;stroke-linecap:butt;stroke-linejoin:miter;stroke-opacity:1"
     d="M 255.3527,3.4860272 310.15851,25.892823"
     id="path234" />
</svg>
