<?xml version="1.0" encoding="UTF-8" standalone="no"?>
<svg
        xmlns="http://www.w3.org/2000/svg"
        viewBox="0 0 200 70"
        version="1.2"
        id="svg119"
        fill="#fbfbfb">

    <circle cx="20" cy="10" r="5" fill="black"/>
    <line x1="20" y1="10" x2="34" y2="30" stroke="black" stroke-width="2"/>
    <line x1="20" y1="10" x2="60" y2="15" stroke="black" stroke-width="2"/>

    <circle cx="34" cy="30" r="5" fill="black"/>
    <circle cx="60" cy="15" r="5" fill="black"/>
    <line x1="34" y1="30" x2="60" y2="15" stroke="black" stroke-width="2"/>
    <line x1="34" y1="30" x2="100" y2="40" stroke="black" stroke-width="2"/>
    <line x1="60" y1="15" x2="95" y2="20" stroke="black" stroke-width="2"/>

    <circle cx="100" cy="40" r="5" fill="black"/>
    <circle cx="90" cy="60" r="5" fill="black"/>
    <circle cx="115" cy="45" r="5" fill="black"/>
    <line x1="100" y1="40" x2="95" y2="20" stroke="black" stroke-width="2"/>
    <line x1="100" y1="40" x2="90" y2="60" stroke="black" stroke-width="2"/>
    <line x1="100" y1="40" x2="115" y2="45" stroke="black" stroke-width="2"/>
    <line x1="115" y1="45" x2="140" y2="40" stroke="black" stroke-width="2"/>
    <line x1="90" y1="60" x2="115" y2="45" stroke="black" stroke-width="2"/>


    <circle cx="95" cy="20" r="5" fill="black"/>
    <line x1="95" y1="20" x2="170" y2="20" stroke="black" stroke-width="2"/>
    <line x1="95" y1="20" x2="117" y2="5" stroke="black" stroke-width="2"/>
    <line x1="95" y1="20" x2="140" y2="40" stroke="black" stroke-width="2"/>

    <circle cx="170" cy="20" r="5" fill="black"/>
    <circle cx="117" cy="5" r="5" fill="black"/>
    <line x1="117" y1="5" x2="170" y2="20" stroke="black" stroke-width="2"/>
    <line x1="117" y1="5" x2="60" y2="15" stroke="black" stroke-width="2"/>

    <circle cx="140" cy="40" r="5" fill="black"/>
    <line x1="140" y1="40" x2="170" y2="20" stroke="black" stroke-width="2"/>

</svg>