<?xml version="1.0" encoding="UTF-8"?>
<svg width="462px" height="398px" viewBox="0 0 462 398" version="1.1" xmlns="http://www.w3.org/2000/svg" xmlns:xlink="http://www.w3.org/1999/xlink">
    <title>Company Dark</title>
    <defs>
        <filter id="filter-1">
            <feColorMatrix in="SourceGraphic" type="matrix" values="0 0 0 0 1.000000 0 0 0 0 1.000000 0 0 0 0 1.000000 0 0 0 1.000000 0"></feColorMatrix>
        </filter>
    </defs>
    <g id="Company-dark" stroke="none" stroke-width="1" fill="none" fill-rule="evenodd">
        <g id="CLP_gov" transform="translate(-2.000000, 0.000000)">
            <rect id="Rectangle" fill="#9061F9" x="56" y="357" width="356" height="21"></rect>
            <rect id="Rectangle" fill="#0E9F6E" x="56" y="327" width="356" height="21"></rect>
            <rect id="Rectangle" fill="#3F83F8" x="56" y="297" width="356" height="21"></rect>
            <rect id="Rectangle" fill="#F05252" x="56" y="267" width="356" height="21"></rect>
            <text id="Technology-Layer" font-family="Helvetica" font-size="12" font-weight="normal" fill="#FFFFFF">
                <tspan x="185" y="371">Technology Layer</tspan>
            </text>
            <text id="Data-Layer" font-family="Helvetica" font-size="12" font-weight="normal" fill="#FFFFFF">
                <tspan x="203" y="341">Data Layer</tspan>
            </text>
            <text id="Application-Layer" font-family="Helvetica" font-size="12" font-weight="normal" fill="#FFFFFF">
                <tspan x="186" y="311">Application Layer</tspan>
            </text>
            <text id="Utilization-Layer" font-family="Helvetica" font-size="12" font-weight="normal" fill="#FFFFFF">
                <tspan x="189" y="281">Utilization Layer</tspan>
            </text>
        </g>
        <text id="Company" fill-rule="nonzero" font-family="Helvetica" font-size="16" font-weight="normal" fill="#FFFFFF">
            <tspan x="10" y="18">Company</tspan>
        </text>
        <text id="Legal" fill-rule="nonzero" font-family="Helvetica" font-size="12" font-weight="normal" fill="#FFFFFF">
            <tspan x="18" y="184">Legal</tspan>
        </text>
        <rect id="Rectangle" stroke="#FFFFFF" x="51.5" y="241.5" width="362" height="141"></rect>
        <path id="Line-2" d="M74,121 L74,143 L78,143 L73.5,152 L69,143 L73,143 L73,121 L74,121 Z" fill="#FFFFFF" fill-rule="nonzero"></path>
        <path id="Line-2" d="M232,134 L232,143 L236,143 L231.5,152 L227,143 L231,143 L231,134 L232,134 Z" fill="#FFFFFF" fill-rule="nonzero"></path>
        <path id="Line-2" d="M153,121 L153,143 L157,143 L152.5,152 L148,143 L152,143 L152,121 L153,121 Z" fill="#FFFFFF" fill-rule="nonzero"></path>
        <path id="Line-2" d="M392,121 L392,143 L396,143 L391.5,152 L387,143 L391,143 L391,121 L392,121 Z" fill="#FFFFFF" fill-rule="nonzero"></path>
        <line x1="181.5" y1="121.5" x2="73.5" y2="121.5" id="Line" stroke="#FFFFFF" stroke-linecap="square"></line>
        <line x1="280.5" y1="121.5" x2="391.5" y2="121.5" id="Line-4" stroke="#FFFFFF" stroke-linecap="square"></line>
        <path id="Line-2" d="M391.5,198.5 L396,207.5 L391.999,207.499 L392,220 L391,220 L390.999,207.499 L387,207.5 L391.5,198.5 Z" fill="#FFFFFF" fill-rule="nonzero"></path>
        <text id="HR" fill-rule="nonzero" font-family="Helvetica" font-size="12" font-weight="normal" fill="#FFFFFF">
            <tspan x="109" y="184">HR</tspan>
        </text>
        <text id="Production" fill-rule="nonzero" font-family="Helvetica" font-size="12" font-weight="normal" fill="#FFFFFF">
            <tspan x="400" y="209">Production</tspan>
        </text>
        <path id="Line-2" d="M231.5,198.5 L236,207.5 L232,207.499 L232,220 L231,220 L231,207.499 L227,207.5 L231.5,198.5 Z" fill="#FFFFFF" fill-rule="nonzero"></path>
        <path id="Line-2" d="M152.5,198.5 L157,207.5 L152.999,207.499 L153,220 L152,220 L151.999,207.499 L148,207.5 L152.5,198.5 Z" fill="#FFFFFF" fill-rule="nonzero"></path>
        <path id="Line-2" d="M73.5,198.5 L78,207.5 L73.999,207.499 L74,220 L73,220 L72.999,207.499 L69,207.5 L73.5,198.5 Z" fill="#FFFFFF" fill-rule="nonzero"></path>
        <line x1="391.5" y1="219.5" x2="73.5" y2="219.5" id="Line-4" stroke="#FFFFFF" stroke-linecap="square"></line>
        <rect id="Rectangle" stroke="#FFFFFF" x="181.5" y="109.5" width="98" height="24"></rect>
        <text id="Departments" fill-rule="nonzero" font-family="Helvetica" font-size="16" font-weight="normal" fill="#FFFFFF">
            <tspan x="186" y="127">Departments</tspan>
        </text>
        <text id="Common-Legal-Platfor" fill-rule="nonzero" font-family="Helvetica" font-size="16" font-weight="normal" fill="#FFFFFF">
            <tspan x="144" y="256">Common Legal Platform</tspan>
        </text>
        <path id="Line-3" d="M232.5,87 L237,96 L233,96 L233,110 L232,110 L232,96 L228,96 L232.5,87 Z" fill="#FFFFFF" fill-rule="nonzero"></path>
        <path id="Line-5" d="M232,219 L232,232 L236,232 L231.5,241 L227,232 L231,232 L231,219 L232,219 Z" fill="#FFFFFF" fill-rule="nonzero"></path>
        <rect id="Rectangle" stroke="#FFFFFF" x="0.5" y="0.5" width="461" height="397"></rect>
        <g filter="url(#filter-1)" id="iconfinder_8_Building_office_Tower_Headoffice_4308073">
            <g transform="translate(196.000000, 18.000000)">
                <rect id="Rectangle" fill="#000000" fill-rule="nonzero" x="30" y="32" width="4" height="4"></rect>
                <rect id="Rectangle" fill="#000000" fill-rule="nonzero" x="9" y="42" width="4" height="4"></rect>
                <rect id="Rectangle" fill="#000000" fill-rule="nonzero" x="30" y="42" width="4" height="4"></rect>
                <rect id="Rectangle" fill="#000000" fill-rule="nonzero" x="20" y="32" width="4" height="4"></rect>
                <rect id="Rectangle" fill="#000000" fill-rule="nonzero" x="20" y="22" width="4" height="4"></rect>
                <rect id="Rectangle" fill="#000000" fill-rule="nonzero" x="9" y="22" width="4" height="4"></rect>
                <rect id="Rectangle" fill="#000000" fill-rule="nonzero" x="9" y="32" width="4" height="4"></rect>
                <rect id="Rectangle" fill="#000000" fill-rule="nonzero" x="20" y="12" width="4" height="4"></rect>
                <rect id="Rectangle" fill="#000000" fill-rule="nonzero" x="30" y="22" width="4" height="4"></rect>
                <rect id="Rectangle" fill="#000000" fill-rule="nonzero" x="9" y="12" width="4" height="4"></rect>
                <rect id="Rectangle" fill="#000000" fill-rule="nonzero" x="20" y="42" width="4" height="4"></rect>
                <rect id="Rectangle" fill="#000000" fill-rule="nonzero" x="30" y="12" width="4" height="4"></rect>
                <rect id="Rectangle" fill="#000000" fill-rule="nonzero" x="9" y="0" width="25" height="4"></rect>
                <path d="M60,13.2857076 L56.25004,13.2857076 L56.25004,9.57135654 C56.25004,9.17697828 55.9142131,8.85699376 55.499952,8.85699376 C55.0856908,8.85699376 54.7498639,9.17697828 54.7498639,9.57135654 L54.7498639,13.2857076 L50.2562187,13.2857076 L50.2496558,13.2857076 L50.2325284,13.2857076 L50.1750632,6.70841737 C50.1715417,6.31586847 49.8365152,6 49.4249752,6 C49.4227342,6 49.4209734,6 49.4187325,6 C49.0044713,6.00335382 48.6715257,6.32577748 48.6750472,6.72030818 L48.7323523,13.2857076 L45,13.2857076 L45,19 L60,19 L60,13.2857076 L60,13.2857076 Z" id="Path" fill="#000000" fill-rule="nonzero"></path>
                <path d="M72.269919,65.5474604 L72.269919,43.275961 L66.1380798,35.0642765 L66.1380798,65.5476154 L64.6780735,65.5476154 L64.6780735,32.8688834 L64.6780735,20.5236914 L61.0279801,20.5236914 L44.9680673,20.5236914 L41.3179738,20.5236914 L41.3179738,65.5474604 L39.8579676,65.5474604 L39.8579676,19.7975766 L39.8579676,6 L34.7480237,6 L8.46806731,6 L3.35796759,6 L3.35796759,65.5474604 L0.730081016,65.5474604 C0.327025193,65.5474604 0,65.8726234 0,66.2737302 C0,66.6748369 0.326869392,67 0.730081016,67 L72.269919,67 C72.6732864,67 73,66.6748369 73,66.2737302 C73,65.8726234 72.6732864,65.5474604 72.269919,65.5474604 Z M28.1779177,11.0832688 C28.1779177,10.682317 28.5049429,10.3569989 28.9079988,10.3569989 L34.7480237,10.3569989 C35.1512353,10.3569989 35.4781047,10.682317 35.4781047,11.0832688 L35.4781047,16.8928073 C35.4781047,17.2939141 35.1512353,17.6190771 34.7480237,17.6190771 L28.9079988,17.6190771 C28.5049429,17.6190771 28.1779177,17.2939141 28.1779177,16.8928073 L28.1779177,11.0832688 Z M28.1779177,21.2499613 C28.1779177,20.8490095 28.5049429,20.5236914 28.9079988,20.5236914 L34.7480237,20.5236914 C35.1512353,20.5236914 35.4781047,20.8490095 35.4781047,21.2499613 L35.4781047,27.0594998 C35.4781047,27.4606066 35.1512353,27.7857696 34.7480237,27.7857696 L28.9079988,27.7857696 C28.5049429,27.7857696 28.1779177,27.4606066 28.1779177,27.0594998 L28.1779177,21.2499613 Z M28.1779177,31.4164988 C28.1779177,31.015547 28.5049429,30.6903839 28.9079988,30.6903839 L34.7480237,30.6903839 C35.1512353,30.6903839 35.4781047,31.015547 35.4781047,31.4164988 L35.4781047,37.2260373 C35.4781047,37.6271441 35.1512353,37.9523071 34.7480237,37.9523071 L28.9079988,37.9523071 C28.5049429,37.9523071 28.1779177,37.6271441 28.1779177,37.2260373 L28.1779177,31.4164988 Z M28.1779177,41.5831913 C28.1779177,41.1820845 28.5049429,40.8569214 28.9079988,40.8569214 L34.7480237,40.8569214 C35.1512353,40.8569214 35.4781047,41.1820845 35.4781047,41.5831913 L35.4781047,47.3927298 C35.4781047,47.7938366 35.1512353,48.1189996 34.7480237,48.1189996 L28.9079988,48.1189996 C28.5049429,48.1189996 28.1779177,47.7938366 28.1779177,47.3927298 L28.1779177,41.5831913 Z M17.9580299,11.0832688 C17.9580299,10.682317 18.2848993,10.3569989 18.6881109,10.3569989 L24.5281359,10.3569989 C24.9313475,10.3569989 25.2582169,10.682317 25.2582169,11.0832688 L25.2582169,16.8928073 C25.2582169,17.2939141 24.9313475,17.6190771 24.5281359,17.6190771 L18.6881109,17.6190771 C18.2850551,17.6190771 17.9580299,17.2939141 17.9580299,16.8928073 L17.9580299,11.0832688 Z M17.9580299,21.2499613 C17.9580299,20.8490095 18.2848993,20.5236914 18.6881109,20.5236914 L24.5281359,20.5236914 C24.9313475,20.5236914 25.2582169,20.8490095 25.2582169,21.2499613 L25.2582169,27.0594998 C25.2582169,27.4606066 24.9313475,27.7857696 24.5281359,27.7857696 L18.6881109,27.7857696 C18.2850551,27.7857696 17.9580299,27.4606066 17.9580299,27.0594998 L17.9580299,21.2499613 Z M17.9580299,31.4164988 C17.9580299,31.015547 18.2848993,30.6903839 18.6881109,30.6903839 L24.5281359,30.6903839 C24.9313475,30.6903839 25.2582169,31.015547 25.2582169,31.4164988 L25.2582169,37.2260373 C25.2582169,37.6271441 24.9313475,37.9523071 24.5281359,37.9523071 L18.6881109,37.9523071 C18.2850551,37.9523071 17.9580299,37.6271441 17.9580299,37.2260373 L17.9580299,31.4164988 Z M17.9580299,41.5831913 C17.9580299,41.1820845 18.2848993,40.8569214 18.6881109,40.8569214 L24.5281359,40.8569214 C24.9313475,40.8569214 25.2582169,41.1820845 25.2582169,41.5831913 L25.2582169,47.3927298 C25.2582169,47.7938366 24.9313475,48.1189996 24.5281359,48.1189996 L18.6881109,48.1189996 C18.2850551,48.1189996 17.9580299,47.7938366 17.9580299,47.3927298 L17.9580299,41.5831913 Z M7.73798629,11.0832688 C7.73798629,10.682317 8.06485568,10.3569989 8.46806731,10.3569989 L14.3080922,10.3569989 C14.7113039,10.3569989 15.0381733,10.682317 15.0381733,11.0832688 L15.0381733,16.8928073 C15.0381733,17.2939141 14.7113039,17.6190771 14.3080922,17.6190771 L8.46806731,17.6190771 C8.06501148,17.6190771 7.73798629,17.2939141 7.73798629,16.8928073 L7.73798629,11.0832688 Z M7.73798629,21.2499613 C7.73798629,20.8490095 8.06485568,20.5236914 8.46806731,20.5236914 L14.3080922,20.5236914 C14.7113039,20.5236914 15.0381733,20.8490095 15.0381733,21.2499613 L15.0381733,27.0594998 C15.0381733,27.4606066 14.7113039,27.7857696 14.3080922,27.7857696 L8.46806731,27.7857696 C8.06501148,27.7857696 7.73798629,27.4606066 7.73798629,27.0594998 L7.73798629,21.2499613 Z M7.73798629,31.4164988 C7.73798629,31.015547 8.06485568,30.6903839 8.46806731,30.6903839 L14.3080922,30.6903839 C14.7113039,30.6903839 15.0381733,31.015547 15.0381733,31.4164988 L15.0381733,37.2260373 C15.0381733,37.6271441 14.7113039,37.9523071 14.3080922,37.9523071 L8.46806731,37.9523071 C8.06501148,37.9523071 7.73798629,37.6271441 7.73798629,37.2260373 L7.73798629,31.4164988 Z M7.73798629,41.5831913 C7.73798629,41.1820845 8.06485568,40.8569214 8.46806731,40.8569214 L14.3080922,40.8569214 C14.7113039,40.8569214 15.0381733,41.1820845 15.0381733,41.5831913 L15.0381733,47.3927298 C15.0381733,47.7938366 14.7113039,48.1189996 14.3080922,48.1189996 L8.46806731,48.1189996 C8.06501148,48.1189996 7.73798629,47.7938366 7.73798629,47.3927298 L7.73798629,41.5831913 Z M26.7180673,65.5474604 L26.7180673,52.4759986 L16.4980237,52.4759986 L16.4980237,65.5474604 L15.0380174,65.5474604 L15.0380174,51.7498838 C15.0380174,51.348777 15.3648868,51.0236139 15.7680985,51.0236139 L27.4479925,51.0236139 C27.8512041,51.0236139 28.1780735,51.348777 28.1780735,51.7498838 L28.1780735,65.5474604 L26.7180673,65.5474604 Z M45.6979925,65.5474604 L45.6979925,25.6071152 C45.6979925,25.2061634 46.0248619,24.8808454 46.4280735,24.8808454 C46.8312852,24.8808454 47.1581546,25.2060084 47.1581546,25.6071152 L47.1581546,65.5474604 L45.6979925,65.5474604 L45.6979925,65.5474604 Z M50.0780112,65.5474604 L50.0780112,25.6071152 C50.0780112,25.2061634 50.4048806,24.8808454 50.8080922,24.8808454 C51.2113039,24.8808454 51.5381733,25.2060084 51.5381733,25.6071152 L51.5381733,65.5474604 L50.0780112,65.5474604 L50.0780112,65.5474604 Z M54.4580299,65.5474604 L54.4580299,25.6071152 C54.4580299,25.2061634 54.7848993,24.8808454 55.1881109,24.8808454 C55.5913226,24.8808454 55.9181919,25.2060084 55.9181919,25.6071152 L55.9181919,65.5474604 L54.4580299,65.5474604 L54.4580299,65.5474604 Z M58.8378928,65.5474604 L58.8378928,25.6071152 C58.8378928,25.2061634 59.1647622,24.8808454 59.5679738,24.8808454 C59.9713412,24.8808454 60.2980548,25.2060084 60.2980548,25.6071152 L60.2980548,65.5474604 L58.8378928,65.5474604 L58.8378928,65.5474604 Z" id="Shape" fill="#000000" fill-rule="nonzero"></path>
            </g>
        </g>
        <g id="iconfinder_Location_09_1530085" transform="translate(136.000000, 154.000000)" fill-rule="nonzero">
            <path d="M29.7148627,42.9991971 L39.5621971,42.9991971 C42.5597738,42.9991971 45,40.5737784 45,37.5935884 L45,17.6242275 L29.7140549,17.6218189 L29.7140549,0 L0,0 L0,43 L26.9684976,43 L29.7148627,43 L29.7148627,42.9991971 Z" id="Shape" fill="#FFFFFF"></path>
            <rect id="Rectangle" fill="#000000" x="10" y="19" width="3" height="5"></rect>
            <rect id="Rectangle" fill="#000000" x="10" y="30" width="3" height="5"></rect>
            <rect id="Rectangle" fill="#000000" x="10" y="9" width="3" height="5"></rect>
            <rect id="Rectangle" fill="#000000" x="18" y="30" width="3" height="5"></rect>
            <rect id="Rectangle" fill="#000000" x="18" y="19" width="3" height="5"></rect>
            <rect id="Rectangle" fill="#000000" x="18" y="9" width="3" height="5"></rect>
            <rect id="Rectangle" fill="#000000" x="33" y="25" width="6" height="3"></rect>
            <rect id="Rectangle" fill="#000000" x="33" y="31" width="6" height="3"></rect>
        </g>
        <g id="iconfinder_Location_09_1530085" transform="translate(215.000000, 154.000000)" fill-rule="nonzero">
            <path d="M29.7148627,42.9991971 L39.5621971,42.9991971 C42.5597738,42.9991971 45,40.5737784 45,37.5935884 L45,17.6242275 L29.7140549,17.6218189 L29.7140549,0 L0,0 L0,43 L26.9684976,43 L29.7148627,43 L29.7148627,42.9991971 Z" id="Shape" fill="#FFFFFF"></path>
            <rect id="Rectangle" fill="#000000" x="10" y="19" width="3" height="5"></rect>
            <rect id="Rectangle" fill="#000000" x="10" y="30" width="3" height="5"></rect>
            <rect id="Rectangle" fill="#000000" x="10" y="9" width="3" height="5"></rect>
            <rect id="Rectangle" fill="#000000" x="18" y="30" width="3" height="5"></rect>
            <rect id="Rectangle" fill="#000000" x="18" y="19" width="3" height="5"></rect>
            <rect id="Rectangle" fill="#000000" x="18" y="9" width="3" height="5"></rect>
            <rect id="Rectangle" fill="#000000" x="33" y="25" width="6" height="3"></rect>
            <rect id="Rectangle" fill="#000000" x="33" y="31" width="6" height="3"></rect>
        </g>
        <g id="iconfinder_Location_09_1530085" transform="translate(57.000000, 154.000000)" fill-rule="nonzero">
            <path d="M29.7148627,42.9991971 L39.5621971,42.9991971 C42.5597738,42.9991971 45,40.5737784 45,37.5935884 L45,17.6242275 L29.7140549,17.6218189 L29.7140549,0 L0,0 L0,43 L26.9684976,43 L29.7148627,43 L29.7148627,42.9991971 Z" id="Shape" fill="#FFFFFF"></path>
            <rect id="Rectangle" fill="#000000" x="10" y="19" width="3" height="5"></rect>
            <rect id="Rectangle" fill="#000000" x="10" y="30" width="3" height="5"></rect>
            <rect id="Rectangle" fill="#000000" x="10" y="9" width="3" height="5"></rect>
            <rect id="Rectangle" fill="#000000" x="18" y="30" width="3" height="5"></rect>
            <rect id="Rectangle" fill="#000000" x="18" y="19" width="3" height="5"></rect>
            <rect id="Rectangle" fill="#000000" x="18" y="9" width="3" height="5"></rect>
            <rect id="Rectangle" fill="#000000" x="33" y="25" width="6" height="3"></rect>
            <rect id="Rectangle" fill="#000000" x="33" y="31" width="6" height="3"></rect>
        </g>
        <g id="Group" transform="translate(363.000000, 143.000000)" fill-rule="nonzero">
            <rect id="rect3241" fill="#000000" x="4" y="35" width="47" height="13"></rect>
            <path d="M3.73225737,0 L3.73225737,32.3911723 L0,32.3911723 L0,52 L56,52 L56,32.3911723 L53.9987131,32.3911723 L37.9553887,16.5066294 L37.9553887,32.3911723 L37.3225737,32.3911723 L21.2792493,16.5066294 L21.2792493,32.3911723 L7.46691689,32.3911723 L7.46684182,0 L3.73225737,0 Z M6.8452118,36.5503937 L10.703807,36.5503937 L10.703807,40.3967004 L6.8452118,40.3967004 L6.8452118,36.5503937 Z M14.5343271,36.5503937 L18.3935228,36.5503937 L18.3935228,40.3967004 L14.5343271,40.3967004 L14.5343271,36.5503937 Z M22.226445,36.5503937 L26.0856408,36.5503937 L26.0856408,40.3967004 L22.226445,40.3967004 L22.226445,36.5503937 Z M29.916311,36.5503937 L33.7755067,36.5503937 L33.7755067,40.3967004 L29.916311,40.3967004 L29.916311,36.5503937 L29.916311,36.5503937 Z M37.608429,36.5503937 L41.4676247,36.5503937 L41.4676247,40.3967004 L37.608429,40.3967004 L37.608429,36.5503937 Z M45.2982949,36.5503937 L49.1567399,36.5503937 L49.1567399,40.3967004 L45.2982949,40.3967004 L45.2982949,36.5503937 Z M6.8452118,43.9967177 L10.703807,43.9967177 L10.703807,47.8422757 L6.8452118,47.8422757 L6.8452118,43.9967177 L6.8452118,43.9967177 Z M14.5343271,43.9967177 L18.3935228,43.9967177 L18.3935228,47.8422757 L14.5343271,47.8422757 L14.5343271,43.9967177 Z M22.226445,43.9967177 L26.0856408,43.9967177 L26.0856408,47.8422757 L22.226445,47.8422757 L22.226445,43.9967177 Z M29.916311,43.9967177 L33.7755067,43.9967177 L33.7755067,47.8422757 L29.916311,47.8422757 L29.916311,43.9967177 L29.916311,43.9967177 Z M37.608429,43.9967177 L41.4676247,43.9967177 L41.4676247,47.8422757 L37.608429,47.8422757 L37.608429,43.9967177 Z M45.2982949,43.9967177 L49.1567399,43.9967177 L49.1567399,47.8422757 L45.2982949,47.8422757 L45.2982949,43.9967177 Z" id="rect2396" fill="#FFFFFF"></path>
        </g>
        <text id="&amp;-purchasing" font-family="Helvetica" font-size="12" font-weight="normal" fill="#FFFFFF">
            <tspan x="265" y="181">&amp; purchasing</tspan>
        </text>
        <text id="procurement" fill-rule="nonzero" font-family="Helvetica" font-size="12" font-weight="normal" fill="#FFFFFF">
            <tspan x="251" y="165">procurement</tspan>
        </text>
    </g>
</svg>